<svg xmlns="http://www.w3.org/2000/svg" width="48" height="48"><path d="M35.52 6.08a2.56 2.56 0 0 1 2.56 2.56v30.72a2.56 2.56 0 0 1-2.56 2.56h-23a2.56 2.56 0 0 1-2.56-2.56V8.64a2.56 2.56 0 0 1 2.56-2.56Zm0 2.56h-23v30.72h23Z"/><path d="M15 17.6a1.13 1.13 0 0 1 1.28 1.28v10.24A1.13 1.13 0 0 1 15 30.4a1.13 1.13 0 0 1-1.28-1.28V18.88A1.13 1.13 0 0 1 15 17.6zm3.56 0a1.13 1.13 0 0 1 1.28 1.28v10.24a1.13 1.13 0 0 1-1.28 1.28 1.13 1.13 0 0 1-1.28-1.28V18.88a1.13 1.13 0 0 1 1.28-1.28zM30.08 24a1.6 1.6 0 1 0 1.6-1.6 1.6 1.6 0 0 0-1.6 1.6z"/></svg>