<svg xmlns="http://www.w3.org/2000/svg" width="32" height="32"><g color="#000"><path style="line-height:normal;text-indent:0;text-align:start;text-decoration-line:none;text-decoration-style:solid;text-decoration-color:#000;text-transform:none;block-progression:tb;isolation:auto;mix-blend-mode:normal" fill="#373748" d="m12.455 1020.361-2 .01a.5.5 0 0 0-.498.5v6.733c0 .485-.17 1.09-.453 1.527-.283.437-.628.686-1.047.686a.5.5 0 0 0-.5.5V1050.39c0 1.15 1.1 1.974 2.332 1.974h1.834c.894 0 1.58-.171 2.076-.523s.758-.904.758-1.451v-19.145l-.111-.545-.383.045h.035l.135.047.181.098.067.084s.063.253.072.273c.017.041-.01-.132-.006-.11l.01.125v-.951a.5.5 0 0 0-.5-.5c-.497 0-.813-.255-1.076-.68-.264-.425-.41-1.014-.426-1.444v-6.824a.5.5 0 0 0-.5-.5zm-.5 1.002v6.342c0 .01.001.012.002.018.022.6.189 1.315.572 1.934.3.484.816.837 1.428 1.002V1050.387c0 .27-.08.455-.336.637s-.736.338-1.498.338H10.29c-.8 0-1.332-.49-1.332-.975v-19.727c.577-.165 1.074-.505 1.387-.988a3.886 3.886 0 0 0 .613-2.072v-6.235h.998z" font-family="sans-serif" font-weight="400" overflow="visible" transform="translate(0 -1020.362)"/><path style="line-height:normal;text-indent:0;text-align:start;text-decoration-line:none;text-decoration-style:solid;text-decoration-color:#000;text-transform:none;block-progression:tb;isolation:auto;mix-blend-mode:normal" fill="#373748" fill-rule="evenodd" d="M11.45 1031.172a.497.497 0 0 0-.493.506v16.482c-.01.676 1.01.676 1 0v-16.482a.5.5 0 0 0-.508-.506z" font-family="sans-serif" font-weight="400" overflow="visible" transform="translate(0 -1020.362)"/><path style="line-height:normal;text-indent:0;text-align:start;text-decoration-line:none;text-decoration-style:solid;text-decoration-color:#000;text-transform:none;block-progression:tb;isolation:auto;mix-blend-mode:normal" fill="#373748" fill-rule="evenodd" d="M11.465 1048.016a.501.501 0 0 0-.35.138l-.965.897c-.488.454.194 1.187.682.732l.965-.896a.5.5 0 0 0-.332-.871z" font-family="sans-serif" font-weight="400" overflow="visible" transform="translate(0 -1020.362)"/><path style="line-height:normal;text-indent:0;text-align:start;text-decoration-line:none;text-decoration-style:solid;text-decoration-color:#000;text-transform:none;block-progression:tb;isolation:auto;mix-blend-mode:normal" fill="#373748" fill-rule="evenodd" d="M11.416 1048.016a.5.5 0 0 0-.287.882l1.09.944c.505.462 1.184-.322.654-.756l-1.09-.943a.5.5 0 0 0-.367-.127z" font-family="sans-serif" font-weight="400" overflow="visible" transform="translate(0 -1020.362)"/><path style="isolation:auto;mix-blend-mode:normal" fill="#f55" d="M344.183 991.9a2.903 2.903 0 1 1-5.805 0 2.903 2.903 0 0 1 5.805 0z" overflow="visible" transform="rotate(17.832 3252.006 -510.181)"/><path style="isolation:auto;mix-blend-mode:normal" fill="#b3b3b3" d="M21.258 1045.856c-.105 0-.21 0-.315.01l-1.657 5.125c.178.147.373.272.58.373l1.765-5.461a2.925 2.925 0 0 0-.373-.043zm1.159.298-1.767 5.461c.227.04.458.051.688.036l1.659-5.124a2.903 2.903 0 0 0-.58-.373z" overflow="visible" transform="translate(0 -1020.362)"/></g></svg>